<svg xmlns="http://www.w3.org/2000/svg" viewBox="0 0 2081.25 480.99"><defs><style>.cls-1{fill:#231916;}.cls-2{fill:#9b2234;}</style></defs><title>피코그램_CI [Converted]</title><path class="cls-1" d="M550.88,1380.05c8.22,9.89,12.35,24.64,12.35,44.36q0,18.84-5.54,32.88c-3.65,9.37-8.81,16.16-15.62,20.41a42.22,42.22,0,0,1-22.84,6.36c-12.52,0-22.79-4.82-30.66-14.44s-11.86-25.32-11.86-47.17q0-28.11,12.69-42.64c8.48-9.69,18.86-14.55,31.05-14.55S542.64,1370.22,550.88,1380.05Zm-71.71,262.1V1529.24c7.46,9,13.87,15.48,19.15,19.54s12.16,7.47,20.52,10.17,18.41,4,30,4q49.59,0,83.31-36.9t33.74-100.43q0-38.61-13.71-70.27t-40.58-48.5Q584.71,1290,551.72,1290c-19.86,0-37.32,4.34-52.27,13s-25.27,19.59-30.83,32.64v-38.12H376.5v344.56Z" transform="translate(-376.5 -1177.19)"/><path class="cls-1" d="M701.51,1554.65V1297.59H804.16v257.06Z" transform="translate(-376.5 -1177.19)"/><path class="cls-2" d="M701.51,1177.19H804.16v126H701.51Z" transform="translate(-376.5 -1177.19)"/><path class="cls-1" d="M1130,1454.47q-3.17,23.67-9.76,38.49a94,94,0,0,1-17.12,26,128.76,128.76,0,0,1-25.27,20.64,138,138,0,0,1-33.87,15.27q-25.14,7.61-55.22,7.59-70.14,0-109.61-37.75t-39.47-97.88q0-60.85,39.6-98.85t109.48-38q47.19,0,78.21,15.61t46.43,42q10.74,18.09,14.89,47.15H1024.67q-1.73-17.35-11.62-26.62t-25.79-9.31q-19.82,0-32.13,15t-12.33,50.46q0,38.38,12,53t33,14.68c11.07,0,20-3,26.63-9.14s10.85-15.6,12.47-28.49Z" transform="translate(-376.5 -1177.19)"/><path class="cls-1" d="M1283.65,1487c-7.11-4.22-12.63-11.2-16.64-20.9s-6-22.51-6-38.5q0-37.36,12.56-53.37c8.4-10.66,18.9-16,31.66-16q18.32,0,28.81,13.67,14.4,18.32,14.4,53.54,0,24.18-5.72,39.82c-3.83,10.45-9.11,17.74-15.76,21.88a39.79,39.79,0,0,1-21.29,6.22A42.19,42.19,0,0,1,1283.65,1487Zm-86.76-159.35q-38.75,37.67-38.73,100.21,0,45.72,20.9,77t55,44.7a190.75,190.75,0,0,0,70.53,13.44q44.22,0,79-17.94t51.31-48.29q16.52-30.26,16.52-69.62,0-62.31-38.61-99.71T1304.28,1290Q1235.61,1290,1196.89,1327.62Z" transform="translate(-376.5 -1177.19)"/><path class="cls-2" d="M1559.45,1429.36c0-17.94,5.62-36.68,16.8-56.08s25.85-29.19,44.13-29.19q14.19,0,21.26,9.17c4.7,6.16,7.13,14.6,7.13,25.41a115.84,115.84,0,0,1-17.25,61.85q-17.26,28.07-39.27,28-20.28,0-28.14-14.94C1561,1447.56,1559.45,1439.5,1559.45,1429.36Zm8.91,218.39c-14.37,0-26.39-2.11-36.19-6.34q-28.08-12.33-28.08-44.86,0-21.61,18.24-38.62t24.53-17c2.46,0,11.6,3,27.54,9.16s27.22,10.84,33.92,14.11c8,4.1,13.81,7.92,17.34,11.51a33.7,33.7,0,0,1,10.06,24.77q0,19.36-19.15,33.36T1568.36,1647.75Zm-91.64-45q0,23.21,22,39.36t59.61,16.08q54.27,0,81.14-22.1t26.85-51.42q0-39.11-53.5-59.37-53.82-20-53.8-28.27c0-3.75,2.2-8,6.61-12.69,4.24-4.72,7.55-7.09,10-7.09,3.08.69,5.69,1.12,7.85,1.39a60.61,60.61,0,0,0,6.8.36q35.49,0,66.23-22.72t30.69-62.27a76.41,76.41,0,0,0-.75-12.44,97.13,97.13,0,0,0-2.2-9.76h25.07v-19.9h-33.2c-1.77-3-7.81-6.83-18-11.39s-22.8-6.84-37.6-6.84q-42.51,0-71.32,24.42t-28.81,61.25q0,22.94,13.59,37.35a77.64,77.64,0,0,0,26.72,16.58c-11.7,8-20.1,14.43-25.3,19.29-9.32,8.66-14,16.29-14,23,0,4.73,1.31,8.49,3.94,11.34a49.38,49.38,0,0,0,10,8.17q-30.6,16.38-44.64,32.88T1476.72,1602.74Z" transform="translate(-376.5 -1177.19)"/><path class="cls-2" d="M1812.94,1333.91a7.31,7.31,0,0,1,.82,3.41,15.77,15.77,0,0,1-.82,3l-24.69,95.5,5.69-11.42a337.8,337.8,0,0,1,41-62.46q23.41-28.29,44.67-28.3,11.43,0,17.64,7.54a26.66,26.66,0,0,1,6.22,17.29c0,7.33-2.11,13.39-6.18,18.14s-9.79,7.22-17,7.22q-7.5,0-11.34-2.93a20.91,20.91,0,0,1-6-6.84l-3-5.33a7.46,7.46,0,0,0-2.25-2.32,6.09,6.09,0,0,0-3.29-.83q-9.62,0-27.65,26.5a401.5,401.5,0,0,0-32.33,57.38q-8.58,18.75-19.13,49.63-6.6,19.53-17.75,55.47h-37.79l40.86-147.29c2.19-8.4,4.1-15.89,5.45-22.52a84,84,0,0,0,2.09-16.27c0-4.83-1.21-8.58-3.64-11.17s-6.71-3.88-12.78-3.88a66,66,0,0,0-7.33.51c-2.93.32-6.47.72-10.56,1.2v-7.82l9.91-2q19.2-4,42.06-8.49t24-4.5A3.36,3.36,0,0,1,1812.94,1333.91Z" transform="translate(-376.5 -1177.19)"/><path class="cls-2" d="M2054.1,1378.4q0,43.63-32.73,97.76-34,59.5-70.76,59.52a27.45,27.45,0,0,1-20.8-8.92c-5.59-6-8.38-15.46-8.38-28.58q0-38.9,30.3-92.85,34.39-61.21,74.54-61.24a26.33,26.33,0,0,1,19.61,8.33C2051.37,1358,2054.1,1366.62,2054.1,1378.4Zm-30.3-44.73q-51.32,0-99.06,57.8-46.29,55.6-46.31,106.79,0,29.76,16.08,46c10.72,10.84,22.67,16.21,35.78,16.21a74.55,74.55,0,0,0,24.36-4.37q16.3-6.58,34.08-22.4a170.43,170.43,0,0,0,25.47-27.16c6.93-9.33,11.83-16.41,14.75-21.31-2.1,7.46-4.3,16.62-6.5,27.51s-3.25,19.23-3.25,25c0,6.27,1.61,11.57,5,15.76s8.13,6.27,14.34,6.27c9.57,0,19.55-3.82,30.07-11.55s24.45-22.28,41.83-43.82l-5.85-5.21-15.9,15.55c-2.37,2.28-4.43,4.17-6.11,5.74s-3.25,2.86-4.7,4l-4.32,3.38a52.31,52.31,0,0,1-6.56,4.4,10.28,10.28,0,0,1-4.87,1.44,6.75,6.75,0,0,1-4.53-1.57c-1.22-1.05-1.81-2.69-1.81-4.94q0-5.29,9-42.51c3.68-13.74,8.15-30.2,13.44-49.16l24.19-87.12c.72-2.23,1.21-4,1.58-5.19s.92-2.89,1.58-5c.33-1.48.43-2.46.13-3.06s-1.12-.82-2.67-.82l-28.36,3.06c-1.83.18-3,.59-3.48,1.28a17.57,17.57,0,0,0-1.74,4.16l-5.56,17.93-1.21-3.35a36.17,36.17,0,0,0-8.87-13.92Q2043.19,1333.7,2023.8,1333.67Z" transform="translate(-376.5 -1177.19)"/><path class="cls-2" d="M2310.9,1339q11.79,8,11.77,26.54c0,5.5-1.31,13.19-4,23s-7.55,25.66-14.52,47.51q27.06-41.46,46.53-63.13,35.29-39.29,62.39-39.28a32.15,32.15,0,0,1,20.92,7.79q9.58,7.79,9.57,25,0,5.35-4.63,26l-38.32,133.34a8.28,8.28,0,0,0,.71,6.41c1.19,2.27,3.36,3.39,6.54,3.39a13.54,13.54,0,0,0,7.83-2.24,58.08,58.08,0,0,0,8.65-7.33q4.92-4.93,8.08-8.57c2-2.5,8-9.6,17.85-21.4l7.49,5.89-2.5,3.45q-17.79,25.11-35.7,40t-35.42,14.91a22.07,22.07,0,0,1-13.28-3.93c-5.59-4.27-8.35-11.44-8.35-21.42a57.56,57.56,0,0,1,.59-7.91,85.11,85.11,0,0,1,1.89-9.35l38-137.06c.49-1.94.86-3.59,1.08-4.88a19.41,19.41,0,0,0,.4-3.93c0-3.91-1.05-6.94-3.13-9a10.42,10.42,0,0,0-7.82-3.18q-16.69,0-38.87,24.7a400.56,400.56,0,0,0-38.66,50.07q-14.88,25.95-21,43.41t-22.29,76.66h-37.86l48.87-173.82c.36-1.47.63-2.89.86-4.26a23.37,23.37,0,0,0,.39-4.29c0-3.9-.89-7-2.63-9.16s-4.66-3.31-8.64-3.31q-15.87,0-39.14,25.62t-38.09,47.85c-9.74,14.52-19,33.77-27.94,57.88q-7.63,22.07-20.29,63.49H2110.3l47.46-173.36c.45-1.82.88-3.55,1.18-5.23a24.92,24.92,0,0,0,.48-5.24c0-6.49-2.16-10.41-6.62-11.71s-13-1.75-25.67-1.27V1350q24.63-4,79.92-16.3l1.94,1.68-27.73,100q27.59-39.69,52.22-66.33,33.86-35.28,59.74-35.33A30.2,30.2,0,0,1,2310.9,1339Z" transform="translate(-376.5 -1177.19)"/></svg>