<?xml version="1.0" encoding="utf-8"?>
<!-- Generator: Adobe Illustrator 25.2.3, SVG Export Plug-In . SVG Version: 6.00 Build 0)  -->
<svg version="1.1" id="레이어_1" xmlns="http://www.w3.org/2000/svg" xmlns:xlink="http://www.w3.org/1999/xlink" x="0px"
	 y="0px" viewBox="0 0 67 67" style="enable-background:new 0 0 67 67;" xml:space="preserve">
<g id="레이어_1_1_">
	<path style="fill:none;stroke:#FFFFFF;stroke-width:2;stroke-miterlimit:10;" d="M41.2,37.3c0,4.1-3.4,7.5-7.5,7.5
		s-7.5-3.4-7.5-7.5c0-6.6,7.5-14.1,7.5-14.1S41.2,30.7,41.2,37.3z"/>
	<line style="fill:none;stroke:#FFFFFF;stroke-width:2;stroke-miterlimit:10;" x1="56.6" y1="27.3" x2="66" y2="24.8"/>
	<line style="fill:none;stroke:#FFFFFF;stroke-width:2;stroke-miterlimit:10;" x1="54" y1="21.8" x2="62.5" y2="17"/>
	<line style="fill:none;stroke:#FFFFFF;stroke-width:2;stroke-miterlimit:10;" x1="50.1" y1="17.2" x2="57" y2="10.3"/>
	<line style="fill:none;stroke:#FFFFFF;stroke-width:2;stroke-miterlimit:10;" x1="45.1" y1="13.7" x2="50" y2="5.3"/>
	<line style="fill:none;stroke:#FFFFFF;stroke-width:2;stroke-miterlimit:10;" x1="39.4" y1="11.7" x2="42" y2="2.3"/>
	<line style="fill:none;stroke:#FFFFFF;stroke-width:2;stroke-miterlimit:10;" x1="33.4" y1="11.2" x2="33.4" y2="1.4"/>
	<line style="fill:none;stroke:#FFFFFF;stroke-width:2;stroke-miterlimit:10;" x1="27.4" y1="12.3" x2="24.9" y2="2.8"/>
	<line style="fill:none;stroke:#FFFFFF;stroke-width:2;stroke-miterlimit:10;" x1="21.9" y1="14.8" x2="17.1" y2="6.4"/>
	<line style="fill:none;stroke:#FFFFFF;stroke-width:2;stroke-miterlimit:10;" x1="17.3" y1="18.7" x2="10.4" y2="11.8"/>
	<line style="fill:none;stroke:#FFFFFF;stroke-width:2;stroke-miterlimit:10;" x1="13.8" y1="23.7" x2="5.4" y2="18.8"/>
	<line style="fill:none;stroke:#FFFFFF;stroke-width:2;stroke-miterlimit:10;" x1="11.8" y1="29.4" x2="2.4" y2="26.9"/>
	<line style="fill:none;stroke:#FFFFFF;stroke-width:2;stroke-miterlimit:10;" x1="11.3" y1="35.5" x2="1.5" y2="35.4"/>
	<line style="fill:none;stroke:#FFFFFF;stroke-width:2;stroke-miterlimit:10;" x1="12.3" y1="41.4" x2="2.9" y2="43.9"/>
	<line style="fill:none;stroke:#FFFFFF;stroke-width:2;stroke-miterlimit:10;" x1="14.9" y1="46.9" x2="6.5" y2="51.8"/>
	<line style="fill:none;stroke:#FFFFFF;stroke-width:2;stroke-miterlimit:10;" x1="18.8" y1="51.6" x2="11.9" y2="58.4"/>
	<line style="fill:none;stroke:#FFFFFF;stroke-width:2;stroke-miterlimit:10;" x1="23.8" y1="55" x2="18.9" y2="63.4"/>
</g>
</svg>
