<?xml version="1.0" encoding="utf-8"?>
<!-- Generator: Adobe Illustrator 25.2.3, SVG Export Plug-In . SVG Version: 6.00 Build 0)  -->
<svg version="1.1" id="레이어_1" xmlns="http://www.w3.org/2000/svg" xmlns:xlink="http://www.w3.org/1999/xlink" x="0px"
	 y="0px" viewBox="0 0 67 67" style="enable-background:new 0 0 67 67;" xml:space="preserve">
<g id="레이어_1_1_">
	<path style="fill:none;stroke:#FFFFFF;stroke-width:2;stroke-miterlimit:10;" d="M45,26.6C45,33.4,40,39,33.8,39
		s-11.2-5.6-11.2-12.4c0-10.9,11.2-23.3,11.2-23.3S45,15.7,45,26.6z"/>
	<path style="fill:none;stroke:#FFFFFF;stroke-width:2;stroke-linecap:round;stroke-miterlimit:10;" d="M35,33c0,0,4-2,5-7"/>
	<path style="fill:none;stroke:#FFFFFF;stroke-width:2;stroke-linecap:round;stroke-linejoin:round;stroke-miterlimit:10;" d="M5,47
		c0,0,1,4,6,4s8-4,8-4s2,4,7.5,4s7.9-4,7.9-4s0.3,4,7.5,4s7.1-4,7.1-4s1.7,4,6.9,4s7.5-4,7.5-4"/>
	<path style="fill:none;stroke:#FFFFFF;stroke-width:2;stroke-linecap:round;stroke-linejoin:round;stroke-miterlimit:10;" d="
		M5,60.7c0,0,2,4.3,7,4.3s7.5-4.3,7.5-4.3S21,65,27,65s6.8-4.3,6.8-4.3S35,65,41,65s8-4,8-4s2.4,4,6.7,4s7.7-4.3,7.7-4.3"/>
</g>
</svg>
