<?xml version="1.0" encoding="utf-8"?>
<!-- Generator: Adobe Illustrator 25.2.3, SVG Export Plug-In . SVG Version: 6.00 Build 0)  -->
<svg version="1.1" id="레이어_1" xmlns="http://www.w3.org/2000/svg" xmlns:xlink="http://www.w3.org/1999/xlink" x="0px"
	 y="0px" viewBox="0 0 67 67" style="enable-background:new 0 0 67 67;" xml:space="preserve">
<path style="fill:none;stroke:#FFFFFF;stroke-width:2;stroke-miterlimit:10;" d="M41.5,37.8c0,4.1-3.4,7.5-7.5,7.5s-7.5-3.4-7.5-7.5
	c0-6.6,7.5-14.1,7.5-14.1S41.5,31.2,41.5,37.8z"/>
<path style="fill:none;stroke:#FFFFFF;stroke-width:2;stroke-miterlimit:10;" d="M66,39V29h-9.6c-0.6-2.6-1.6-5.1-3-7.3l6.8-6.8
	l-7.1-7.1l-6.8,6.8c-2.2-1.4-4.7-2.5-7.3-3V2H29v9.6c-2.6,0.6-5.1,1.6-7.3,3l-6.8-6.8l-7.1,7.1l6.8,6.8c-1.4,2.2-2.5,4.7-3,7.3H2v10
	h9.6c0.6,2.6,1.6,5.1,3,7.3l-6.8,6.8l7.1,7.1l6.8-6.8c2.2,1.4,4.7,2.5,7.3,3V66h10v-9.6c2.6-0.6,5.1-1.6,7.3-3l6.8,6.8l7.1-7.1
	l-6.8-6.8c1.4-2.2,2.5-4.7,3-7.3C56.4,39,66,39,66,39z"/>
</svg>
